<?xml version="1.0" encoding="UTF-8"?>
<svg xmlns="http://www.w3.org/2000/svg" xmlns:xlink="http://www.w3.org/1999/xlink" width="16px" height="16px" viewBox="0 0 16 16" version="1.1">
<g id="surface1">
<path style=" stroke:none;fill-rule:nonzero;fill:rgb(100%,62.745098%,0%);fill-opacity:1;" d="M 16.03125 16 L 0.421875 16 C 0.171875 16.277344 0.0429688 16.648438 0.0664062 17.023438 C 0.382812 22.019531 3.027344 26.558594 7.164062 29.316406 C 7.460938 29.515625 7.84375 29.597656 8.222656 29.519531 C 8.222656 29.519531 8.222656 29.519531 8.226562 29.519531 Z M 16.03125 16 "/>
<path style=" stroke:none;fill-rule:nonzero;fill:rgb(100%,62.745098%,0%);fill-opacity:1;" d="M 8.222656 2.480469 C 7.859375 2.402344 7.472656 2.476562 7.164062 2.683594 C 3.03125 5.441406 0.382812 9.976562 0.0664062 14.976562 C 0.0429688 15.351562 0.171875 15.722656 0.421875 16 L 16.03125 16 Z M 8.222656 2.480469 "/>
<path style=" stroke:none;fill-rule:nonzero;fill:rgb(100%,62.745098%,0%);fill-opacity:1;" d="M 23.835938 2.480469 C 23.71875 2.125 23.464844 1.828125 23.132812 1.660156 C 18.667969 -0.554688 13.394531 -0.554688 8.929688 1.660156 C 8.59375 1.828125 8.339844 2.125 8.226562 2.480469 L 16.03125 16 Z M 23.835938 2.480469 "/>
<path style=" stroke:none;fill-rule:nonzero;fill:rgb(100%,62.745098%,0%);fill-opacity:1;" d="M 8.226562 29.519531 C 8.339844 29.875 8.59375 30.171875 8.929688 30.335938 C 13.390625 32.554688 18.664062 32.554688 23.132812 30.335938 C 23.855469 29.980469 24.121094 29.078125 23.71875 28.378906 L 16.84375 16.46875 L 16.03125 16 Z M 8.226562 29.519531 "/>
<path style=" stroke:none;fill-rule:nonzero;fill:rgb(100%,62.745098%,0%);fill-opacity:1;" d="M 31.996094 14.976562 C 31.679688 9.980469 29.035156 5.441406 24.898438 2.683594 C 24.585938 2.476562 24.203125 2.402344 23.835938 2.480469 L 16.03125 16 L 16.84375 16.46875 L 30.59375 16.46875 C 31.402344 16.46875 32.046875 15.785156 31.996094 14.976562 Z M 31.996094 14.976562 "/>
<path style=" stroke:none;fill-rule:nonzero;fill:rgb(96.078431%,48.627451%,0%);fill-opacity:1;" d="M 12.808594 16 L 5.738281 28.246094 C 6.195312 28.628906 6.667969 28.988281 7.164062 29.316406 C 7.460938 29.515625 7.84375 29.597656 8.222656 29.519531 L 16.03125 16 Z M 12.808594 16 "/>
<path style=" stroke:none;fill-rule:nonzero;fill:rgb(96.078431%,48.627451%,0%);fill-opacity:1;" d="M 8.222656 2.480469 C 7.859375 2.402344 7.472656 2.476562 7.164062 2.683594 C 7.019531 2.78125 6.875 2.878906 6.734375 2.980469 L 13.53125 14.75 L 0.0820312 14.75 C 0.078125 14.824219 0.0703125 14.902344 0.0664062 14.976562 C 0.0429688 15.351562 0.171875 15.722656 0.421875 16 L 16.03125 16 Z M 8.222656 2.480469 "/>
<path style=" stroke:none;fill-rule:nonzero;fill:rgb(96.078431%,48.627451%,0%);fill-opacity:1;" d="M 23.132812 1.660156 C 22.480469 1.339844 21.8125 1.0625 21.132812 0.832031 C 21.21875 0.953125 21.289062 1.085938 21.335938 1.230469 L 14.421875 13.210938 L 16.03125 16 L 23.835938 2.480469 C 23.71875 2.125 23.464844 1.828125 23.132812 1.660156 Z M 23.132812 1.660156 "/>
<path style=" stroke:none;fill-rule:nonzero;fill:rgb(96.078431%,48.627451%,0%);fill-opacity:1;" d="M 23.71875 28.378906 L 16.84375 16.46875 L 16.03125 16 L 15.414062 17.070312 L 21.21875 27.128906 C 21.621094 27.828125 21.355469 28.730469 20.632812 29.089844 C 16.6875 31.046875 12.253906 31.207031 8.429688 29.917969 C 8.5625 30.09375 8.730469 30.238281 8.929688 30.335938 C 11.148438 31.4375 13.535156 31.996094 16.03125 31.996094 C 18.523438 31.996094 20.914062 31.4375 23.132812 30.335938 C 23.855469 29.980469 24.121094 29.078125 23.71875 28.378906 Z M 23.71875 28.378906 "/>
<path style=" stroke:none;fill-rule:nonzero;fill:rgb(96.078431%,48.627451%,0%);fill-opacity:1;" d="M 31.996094 14.976562 C 31.679688 9.980469 29.035156 5.441406 24.898438 2.683594 C 24.585938 2.476562 24.203125 2.402344 23.835938 2.480469 L 23.820312 2.503906 C 27.207031 5.355469 29.222656 9.40625 29.496094 13.726562 C 29.546875 14.535156 28.902344 15.21875 28.09375 15.21875 L 16.480469 15.21875 L 16.03125 16 L 16.84375 16.46875 L 30.59375 16.46875 C 31.402344 16.46875 32.046875 15.785156 31.996094 14.976562 Z M 31.996094 14.976562 "/>
<path style=" stroke:none;fill-rule:nonzero;fill:rgb(100%,87.843137%,50.980392%);fill-opacity:1;" d="M 3.078125 16 C 3.078125 16.773438 2.898438 17.554688 3.027344 18.292969 C 3.160156 19.050781 3.597656 19.722656 3.855469 20.429688 C 4.117188 21.152344 4.214844 21.949219 4.59375 22.601562 C 4.976562 23.261719 5.621094 23.746094 6.109375 24.328125 C 6.597656 24.910156 6.960938 25.625 7.542969 26.113281 C 8.125 26.601562 8.890625 26.835938 9.554688 27.21875 L 16.03125 16 Z M 3.078125 16 "/>
<path style=" stroke:none;fill-rule:nonzero;fill:rgb(100%,79.215686%,15.686275%);fill-opacity:1;" d="M 12.808594 16 L 7.179688 25.753906 C 7.292969 25.882812 7.414062 26.003906 7.542969 26.113281 C 8.125 26.601562 8.890625 26.835938 9.554688 27.21875 L 16.03125 16 Z M 12.808594 16 "/>
<path style=" stroke:none;fill-rule:nonzero;fill:rgb(100%,87.843137%,50.980392%);fill-opacity:1;" d="M 9.554688 27.21875 C 10.207031 27.597656 10.792969 28.148438 11.515625 28.410156 C 12.222656 28.667969 13.023438 28.625 13.78125 28.757812 C 14.519531 28.886719 15.257812 29.203125 16.03125 29.203125 C 16.804688 29.203125 17.542969 28.886719 18.28125 28.757812 C 19.039062 28.625 19.839844 28.667969 20.546875 28.410156 C 20.902344 28.28125 21.226562 28.082031 21.539062 27.867188 C 22.082031 27.496094 22.25 26.773438 21.921875 26.207031 C 20.328125 23.445312 16.03125 16 16.03125 16 Z M 9.554688 27.21875 "/>
<path style=" stroke:none;fill-rule:nonzero;fill:rgb(100%,79.215686%,15.686275%);fill-opacity:1;" d="M 16.03125 16 L 15.140625 17.539062 L 20.007812 25.96875 C 19.1875 26.476562 18.71875 26.917969 18.046875 27.160156 C 17.339844 27.417969 16.539062 27.375 15.78125 27.507812 C 15.042969 27.636719 14.304688 27.953125 13.53125 27.953125 C 12.757812 27.953125 12.019531 27.636719 11.28125 27.507812 C 10.773438 27.417969 10.246094 27.410156 9.742188 27.335938 C 10.324219 27.703125 10.863281 28.171875 11.515625 28.410156 C 12.222656 28.667969 13.023438 28.625 13.78125 28.757812 C 14.519531 28.886719 15.257812 29.203125 16.03125 29.203125 C 16.804688 29.203125 17.542969 28.886719 18.28125 28.757812 C 19.039062 28.625 19.839844 28.667969 20.546875 28.410156 C 20.902344 28.28125 21.226562 28.082031 21.539062 27.867188 C 22.082031 27.496094 22.25 26.773438 21.921875 26.207031 C 20.328125 23.445312 16.03125 16 16.03125 16 Z M 16.03125 16 "/>
<path style=" stroke:none;fill-rule:nonzero;fill:rgb(100%,87.843137%,50.980392%);fill-opacity:1;" d="M 9.554688 4.78125 C 8.890625 5.164062 8.125 5.398438 7.542969 5.886719 C 6.960938 6.375 6.597656 7.089844 6.109375 7.671875 C 5.621094 8.253906 4.976562 8.738281 4.59375 9.398438 C 4.214844 10.050781 4.117188 10.847656 3.855469 11.570312 C 3.597656 12.277344 3.160156 12.949219 3.027344 13.707031 C 2.898438 14.445312 3.078125 15.226562 3.078125 16 L 16.03125 16 Z M 9.554688 4.78125 "/>
<path style=" stroke:none;fill-rule:nonzero;fill:rgb(100%,79.215686%,15.686275%);fill-opacity:1;" d="M 9.554688 4.78125 C 9.109375 5.035156 8.621094 5.226562 8.171875 5.46875 L 12.449219 12.875 C 12.929688 13.707031 12.328125 14.75 11.367188 14.75 L 2.996094 14.75 C 3.023438 15.164062 3.078125 15.582031 3.078125 16 L 16.03125 16 Z M 9.554688 4.78125 "/>
<path style=" stroke:none;fill-rule:nonzero;fill:rgb(100%,87.843137%,50.980392%);fill-opacity:1;" d="M 20.546875 3.589844 C 19.839844 3.332031 19.039062 3.375 18.28125 3.242188 C 17.542969 3.113281 16.804688 2.796875 16.03125 2.796875 C 15.257812 2.796875 14.519531 3.113281 13.78125 3.242188 C 13.023438 3.375 12.222656 3.332031 11.515625 3.589844 C 10.792969 3.851562 10.207031 4.402344 9.554688 4.78125 L 16.03125 16 L 22.507812 4.78125 C 21.851562 4.402344 21.269531 3.851562 20.546875 3.589844 Z M 20.546875 3.589844 "/>
<path style=" stroke:none;fill-rule:nonzero;fill:rgb(100%,79.215686%,15.686275%);fill-opacity:1;" d="M 22.507812 4.78125 C 21.851562 4.402344 21.269531 3.851562 20.546875 3.589844 C 20.386719 3.53125 20.21875 3.488281 20.050781 3.457031 L 14.421875 13.210938 L 16.03125 16 Z M 22.507812 4.78125 "/>
<path style=" stroke:none;fill-rule:nonzero;fill:rgb(100%,87.843137%,50.980392%);fill-opacity:1;" d="M 28.039062 16 C 28.558594 16 28.992188 15.601562 29.039062 15.082031 C 29.078125 14.613281 29.113281 14.152344 29.035156 13.707031 C 28.902344 12.949219 28.464844 12.277344 28.207031 11.570312 C 27.945312 10.847656 27.847656 10.050781 27.46875 9.398438 C 27.085938 8.734375 26.441406 8.253906 25.953125 7.671875 C 25.464844 7.089844 25.101562 6.375 24.515625 5.886719 C 23.9375 5.398438 23.167969 5.164062 22.507812 4.78125 L 16.03125 16 L 22.34375 16 L 22.34375 19.128906 C 22.339844 19.769531 22.859375 20.285156 23.5 20.285156 C 24.238281 20.285156 24.730469 19.71875 24.730469 19.09375 L 24.730469 18.664062 C 24.730469 18.253906 25.0625 17.917969 25.472656 17.917969 C 25.882812 17.917969 26.214844 18.253906 26.214844 18.664062 L 26.214844 22.003906 C 26.214844 22.507812 26.625 22.914062 27.125 22.914062 C 27.628906 22.914062 28.039062 22.507812 28.039062 22.003906 Z M 28.039062 16 "/>
<path style=" stroke:none;fill-rule:nonzero;fill:rgb(100%,79.215686%,15.686275%);fill-opacity:1;" d="M 29.035156 13.707031 C 28.902344 12.949219 28.464844 12.277344 28.207031 11.570312 C 27.945312 10.847656 27.847656 10.050781 27.46875 9.398438 C 27.085938 8.734375 26.441406 8.253906 25.953125 7.671875 C 25.464844 7.089844 25.101562 6.375 24.515625 5.886719 C 23.9375 5.398438 23.167969 5.164062 22.507812 4.78125 L 22.382812 4.996094 C 22.769531 5.441406 23.074219 5.972656 23.453125 6.421875 C 23.941406 7.003906 24.585938 7.488281 24.96875 8.148438 C 25.347656 8.800781 25.445312 9.597656 25.707031 10.320312 C 25.964844 11.027344 26.402344 11.699219 26.535156 12.457031 C 26.535156 12.464844 26.539062 12.472656 26.539062 12.480469 C 26.738281 13.671875 25.800781 14.75 24.589844 14.75 L 16.753906 14.75 L 16.03125 16 L 25.539062 16 L 25.539062 17.921875 C 25.917969 17.957031 26.214844 18.273438 26.214844 18.664062 L 26.214844 22.003906 C 26.214844 22.507812 26.625 22.914062 27.125 22.914062 C 27.628906 22.914062 28.039062 22.507812 28.039062 22.003906 L 28.039062 16 C 28.558594 16 28.992188 15.601562 29.039062 15.082031 C 29.078125 14.613281 29.113281 14.152344 29.035156 13.707031 Z M 29.035156 13.707031 "/>
<path style=" stroke:none;fill-rule:nonzero;fill:rgb(93.72549%,32.54902%,31.372549%);fill-opacity:1;" d="M 16.492188 25.007812 C 16.492188 26.03125 15.664062 26.863281 14.636719 26.863281 C 13.609375 26.863281 12.777344 26.03125 12.777344 25.007812 C 12.777344 23.980469 13.609375 23.148438 14.636719 23.148438 C 15.664062 23.148438 16.492188 23.980469 16.492188 25.007812 Z M 16.492188 25.007812 "/>
<path style=" stroke:none;fill-rule:nonzero;fill:rgb(93.72549%,32.54902%,31.372549%);fill-opacity:1;" d="M 10.703125 22.058594 C 10.703125 23.085938 9.871094 23.917969 8.84375 23.917969 C 7.816406 23.917969 6.988281 23.085938 6.988281 22.058594 C 6.988281 21.035156 7.816406 20.203125 8.84375 20.203125 C 9.871094 20.203125 10.703125 21.035156 10.703125 22.058594 Z M 10.703125 22.058594 "/>
<path style=" stroke:none;fill-rule:nonzero;fill:rgb(93.72549%,32.54902%,31.372549%);fill-opacity:1;" d="M 12.230469 12.492188 C 12.230469 13.515625 11.398438 14.347656 10.371094 14.347656 C 9.347656 14.347656 8.515625 13.515625 8.515625 12.492188 C 8.515625 11.464844 9.347656 10.632812 10.371094 10.632812 C 11.398438 10.632812 12.230469 11.464844 12.230469 12.492188 Z M 12.230469 12.492188 "/>
<path style=" stroke:none;fill-rule:nonzero;fill:rgb(93.72549%,32.54902%,31.372549%);fill-opacity:1;" d="M 16.132812 6.195312 C 16.132812 7.222656 15.300781 8.054688 14.273438 8.054688 C 13.246094 8.054688 12.414062 7.222656 12.414062 6.195312 C 12.414062 5.171875 13.246094 4.339844 14.273438 4.339844 C 15.300781 4.339844 16.132812 5.171875 16.132812 6.195312 Z M 16.132812 6.195312 "/>
<path style=" stroke:none;fill-rule:nonzero;fill:rgb(100%,43.529412%,0%);fill-opacity:1;" d="M 24.292969 8.496094 C 24.292969 9.007812 23.875 9.425781 23.363281 9.425781 C 22.851562 9.425781 22.433594 9.007812 22.433594 8.496094 C 22.433594 7.984375 22.851562 7.566406 23.363281 7.566406 C 23.875 7.566406 24.292969 7.984375 24.292969 8.496094 Z M 24.292969 8.496094 "/>
<path style=" stroke:none;fill-rule:nonzero;fill:rgb(100%,43.529412%,0%);fill-opacity:1;" d="M 21.300781 13.320312 C 21.300781 13.832031 20.886719 14.25 20.375 14.25 C 19.859375 14.25 19.445312 13.832031 19.445312 13.320312 C 19.445312 12.808594 19.859375 12.390625 20.375 12.390625 C 20.886719 12.390625 21.300781 12.808594 21.300781 13.320312 Z M 21.300781 13.320312 "/>
<path style=" stroke:none;fill-rule:nonzero;fill:rgb(100%,43.529412%,0%);fill-opacity:1;" d="M 20.210938 5.707031 C 20.210938 6.222656 19.796875 6.636719 19.285156 6.636719 C 18.769531 6.636719 18.355469 6.222656 18.355469 5.707031 C 18.355469 5.195312 18.769531 4.78125 19.285156 4.78125 C 19.796875 4.78125 20.210938 5.195312 20.210938 5.707031 Z M 20.210938 5.707031 "/>
<path style=" stroke:none;fill-rule:nonzero;fill:rgb(100%,43.529412%,0%);fill-opacity:1;" d="M 16.960938 10.847656 C 16.960938 11.363281 16.542969 11.777344 16.03125 11.777344 C 15.519531 11.777344 15.101562 11.363281 15.101562 10.847656 C 15.101562 10.335938 15.519531 9.917969 16.03125 9.917969 C 16.542969 9.917969 16.960938 10.335938 16.960938 10.847656 Z M 16.960938 10.847656 "/>
<path style=" stroke:none;fill-rule:nonzero;fill:rgb(100%,43.529412%,0%);fill-opacity:1;" d="M 6.550781 13.695312 C 6.550781 14.207031 6.136719 14.625 5.621094 14.625 C 5.109375 14.625 4.691406 14.207031 4.691406 13.695312 C 4.691406 13.183594 5.109375 12.765625 5.621094 12.765625 C 6.136719 12.765625 6.550781 13.183594 6.550781 13.695312 Z M 6.550781 13.695312 "/>
<path style=" stroke:none;fill-rule:nonzero;fill:rgb(100%,43.529412%,0%);fill-opacity:1;" d="M 11.886719 18.101562 C 11.886719 18.613281 11.46875 19.03125 10.957031 19.03125 C 10.445312 19.03125 10.027344 18.613281 10.027344 18.101562 C 10.027344 17.589844 10.445312 17.171875 10.957031 17.171875 C 11.46875 17.171875 11.886719 17.589844 11.886719 18.101562 Z M 11.886719 18.101562 "/>
<path style=" stroke:none;fill-rule:nonzero;fill:rgb(100%,43.529412%,0%);fill-opacity:1;" d="M 9.734375 7.792969 C 9.589844 7.300781 9.074219 7.019531 8.582031 7.164062 C 8.089844 7.304688 7.808594 7.820312 7.953125 8.316406 C 8.097656 8.808594 8.613281 9.089844 9.105469 8.945312 C 9.597656 8.800781 9.878906 8.285156 9.734375 7.792969 Z M 9.734375 7.792969 "/>
<path style=" stroke:none;fill-rule:nonzero;fill:rgb(100%,43.529412%,0%);fill-opacity:1;" d="M 6.886719 18.785156 C 6.886719 19.300781 6.46875 19.714844 5.957031 19.714844 C 5.441406 19.714844 5.027344 19.300781 5.027344 18.785156 C 5.027344 18.273438 5.441406 17.859375 5.957031 17.859375 C 6.46875 17.859375 6.886719 18.273438 6.886719 18.785156 Z M 6.886719 18.785156 "/>
<path style=" stroke:none;fill-rule:nonzero;fill:rgb(100%,43.529412%,0%);fill-opacity:1;" d="M 19.96875 25.933594 C 19.96875 26.449219 19.550781 26.863281 19.039062 26.863281 C 18.527344 26.863281 18.109375 26.449219 18.109375 25.933594 C 18.109375 25.421875 18.527344 25.007812 19.039062 25.007812 C 19.550781 25.007812 19.96875 25.421875 19.96875 25.933594 Z M 19.96875 25.933594 "/>
<path style=" stroke:none;fill-rule:nonzero;fill:rgb(100%,43.529412%,0%);fill-opacity:1;" d="M 16.960938 20.644531 C 16.960938 21.15625 16.542969 21.574219 16.03125 21.574219 C 15.519531 21.574219 15.101562 21.15625 15.101562 20.644531 C 15.101562 20.132812 15.519531 19.714844 16.03125 19.714844 C 16.542969 19.714844 16.960938 20.132812 16.960938 20.644531 Z M 16.960938 20.644531 "/>
<path style=" stroke:none;fill-rule:nonzero;fill:rgb(93.72549%,32.54902%,31.372549%);fill-opacity:1;" d="M 26.800781 12.617188 C 26.800781 13.640625 25.96875 14.472656 24.941406 14.472656 C 23.914062 14.472656 23.082031 13.640625 23.082031 12.617188 C 23.082031 11.589844 23.914062 10.757812 24.941406 10.757812 C 25.96875 10.757812 26.800781 11.589844 26.800781 12.617188 Z M 26.800781 12.617188 "/>
<path style=" stroke:none;fill-rule:nonzero;fill:rgb(82.745098%,18.431373%,18.431373%);fill-opacity:1;" d="M 15.023438 23.1875 C 15.164062 23.449219 15.246094 23.75 15.246094 24.070312 C 15.246094 25.246094 14.160156 26.132812 13 25.886719 C 13.3125 26.46875 13.929688 26.863281 14.636719 26.863281 C 15.664062 26.863281 16.492188 26.03125 16.492188 25.007812 C 16.492188 24.113281 15.863281 23.367188 15.023438 23.1875 Z M 15.023438 23.1875 "/>
<path style=" stroke:none;fill-rule:nonzero;fill:rgb(82.745098%,18.431373%,18.431373%);fill-opacity:1;" d="M 9.230469 20.242188 C 9.371094 20.503906 9.453125 20.804688 9.453125 21.125 C 9.453125 22.148438 8.621094 22.980469 7.59375 22.980469 C 7.460938 22.980469 7.332031 22.964844 7.207031 22.941406 C 7.523438 23.523438 8.136719 23.917969 8.84375 23.917969 C 9.871094 23.917969 10.703125 23.085938 10.703125 22.058594 C 10.703125 21.167969 10.070312 20.421875 9.230469 20.242188 Z M 9.230469 20.242188 "/>
<path style=" stroke:none;fill-rule:nonzero;fill:rgb(82.745098%,18.431373%,18.431373%);fill-opacity:1;" d="M 10.757812 10.675781 C 10.902344 10.9375 10.980469 11.234375 10.980469 11.554688 C 10.980469 12.582031 10.148438 13.410156 9.125 13.410156 C 8.992188 13.410156 8.859375 13.398438 8.738281 13.371094 C 9.050781 13.953125 9.664062 14.347656 10.371094 14.347656 C 11.398438 14.347656 12.230469 13.515625 12.230469 12.492188 C 12.230469 11.597656 11.601562 10.851562 10.757812 10.675781 Z M 10.757812 10.675781 "/>
<path style=" stroke:none;fill-rule:nonzero;fill:rgb(82.745098%,18.431373%,18.431373%);fill-opacity:1;" d="M 14.660156 4.378906 C 14.800781 4.640625 14.882812 4.941406 14.882812 5.257812 C 14.882812 6.285156 14.050781 7.117188 13.023438 7.117188 C 12.890625 7.117188 12.761719 7.101562 12.636719 7.074219 C 12.949219 7.660156 13.566406 8.054688 14.273438 8.054688 C 15.300781 8.054688 16.132812 7.222656 16.132812 6.195312 C 16.132812 5.304688 15.5 4.558594 14.660156 4.378906 Z M 14.660156 4.378906 "/>
<path style=" stroke:none;fill-rule:nonzero;fill:rgb(82.745098%,18.431373%,18.431373%);fill-opacity:1;" d="M 25.328125 10.800781 C 25.46875 11.0625 25.550781 11.359375 25.550781 11.679688 C 25.550781 12.703125 24.71875 13.535156 23.691406 13.535156 C 23.558594 13.535156 23.429688 13.523438 23.304688 13.496094 C 23.617188 14.078125 24.234375 14.472656 24.941406 14.472656 C 25.96875 14.472656 26.800781 13.640625 26.800781 12.617188 C 26.800781 11.722656 26.167969 10.976562 25.328125 10.800781 Z M 25.328125 10.800781 "/>
</g>
</svg>
